Motion_mu04
version=1
nRows=16
nColumns=43
inDegrees=yes
endheader
time	pelvis_tilt	pelvis_list	pelvis_rotation	pelvis_tx	pelvis_ty	pelvis_tz	hip_flexion_r	hip_adduction_r	hip_rotation_r	knee_angle_r	ankle_angle_r	subtalar_angle_r	mtp_angle_r	hip_flexion_l	hip_adduction_l	hip_rotation_l	knee_angle_l	ankle_angle_l	subtalar_angle_l	mtp_angle_l	lumbar_extension	lumbar_bending	lumbar_rotation	neck_flexion	neck_lateral_bending	neck_rotation	arm_flex_r	arm_add_r	arm_rot_r	elbow_flex_r	pro_sup_r	wrist_flex_r	wrist_dev_r	hand_finger_flex_r	arm_flex_l	arm_add_l	arm_rot_l	elbow_flex_l	pro_sup_l	wrist_flex_l	wrist_dev_l	hand_finger_flex_l
      0.80000000	      0.07496169	    -32.10820025	    -87.14312549	      0.01185327	      1.06336856	      1.57231373	     17.96363577	    -14.38168595	    -16.61250950	    -77.25098886	     11.86443271	     -3.78071369	      2.92684247	     15.69091146	    -13.33418418	    -10.40869143	    -85.47488232	     31.42573695	     -1.57296665	    -17.17523517	     12.51157996	     -1.64133770	     -0.76024306	     -2.79120594	     -0.42393913	     -3.47916577	    -53.13316331	   -145.92522592	   -152.65120197	     61.19363507	    123.98770387	     36.48888481	     -0.77578494	     77.66815465	    -44.33762894	    202.81595314	   -134.55536483	     50.86956277	    109.04113227	     33.54559168	     22.71136578	     90.00021046
      0.80250000	      0.05055224	    -32.51117771	    -87.16024226	      0.01155392	      1.06150924	      1.56782634	     19.15639740	    -14.48968685	    -16.32582971	    -78.56518305	     11.95880738	     -3.65793500	      2.95238087	     16.81076127	    -13.53826834	    -10.08474641	    -87.01372122	     31.60375059	     -1.53217930	    -17.20210292	     11.63227652	     -1.60081018	     -0.76697710	     -2.20322186	     -0.42782407	     -3.56651212	    -53.09544323	   -146.00958518	   -153.03777473	     61.24981607	    124.02958797	     36.41459723	     -0.72588939	     77.64694483	    -44.27133737	    202.64212825	   -135.13337366	     50.72992495	    109.24574872	     33.48767922	     22.72675188	     90.00021046
      0.80500000	     -0.06169121	    -31.99375046	    -87.23130521	      0.01124488	      1.05878964	      1.56331843	     21.46019025	    -14.57501312	    -15.94552258	    -79.89622217	     11.96944090	     -2.76315112	      2.93074530	     19.09030552	    -13.79366000	     -9.68866035	    -88.62586307	     31.62052409	     -0.92723926	    -17.45279263	     11.88104164	     -1.57637751	     -0.50465515	     -2.18404343	     -0.19331172	     -3.85386788	    -53.32850099	   -145.65881652	   -153.33134275	     61.76298632	    124.33714324	     36.40762526	     -0.56334786	     77.57293603	    -44.76822933	    202.17865250	   -136.21811989	     50.83183881	    110.43266838	     33.67010961	     22.76817447	     90.00021046
      0.80750000	     -0.09063723	    -32.38359153	    -87.23934563	      0.01089210	      1.05682128	      1.55881819	     22.68379197	    -14.64737512	    -15.64283076	    -81.16992123	     12.11728161	     -2.66027904	      2.93307813	     20.25246715	    -13.99962151	     -9.34424594	    -90.09241255	     31.78994906	     -0.92762158	    -17.48747238	     11.01137496	     -1.54468020	     -0.52404931	     -1.58176799	     -0.19129330	     -3.94967281	    -53.26707359	   -145.79588655	   -153.73440724	     61.73653798	    124.40602883	     36.35250984	     -0.51282596	     77.55017227	    -44.66129870	    201.96831863	   -136.78717889	     50.64493542	    110.68028308	     33.61682484	     22.78774312	     90.00021046
      0.81000000	     -0.20947765	    -31.82581449	    -87.29516699	      0.01055600	      1.05400466	      1.55430043	     25.02073391	    -14.69778878	    -15.27031300	    -82.41046899	     12.24808719	     -1.74474472	      2.72896738	     22.61629707	    -14.22876867	     -8.91036589	    -91.63362567	     31.72114823	     -0.47538292	    -17.80299821	     11.30648983	     -1.52979878	     -0.29974327	     -1.57580744	      0.04954915	     -4.22854708	    -53.52864839	   -145.49284920	   -154.10742377	     62.19328076	    124.80272775	     36.42942242	     -0.38484824	     77.46895312	    -45.11989467	    201.51091224	   -137.80988519	     50.75381693	    112.01858846	     33.83083859	     22.71102791	     90.00021046
      0.81250000	     -0.25098854	    -32.20135967	    -87.31135739	      0.01016083	      1.05195000	      1.54975685	     26.28329278	    -14.73970944	    -14.97419666	    -83.65448498	     12.44205868	     -1.64138891	      2.68497719	     23.83261678	    -14.42482072	     -8.55429165	    -93.03733439	     31.89027628	     -0.50957260	    -17.85063124	     10.45369447	     -1.48968220	     -0.32102615	     -0.96603927	      0.05986247	     -4.31927014	    -53.45177322	   -145.64642340	   -154.49384017	     62.14167142	    124.89334938	     36.38272473	     -0.34166687	     77.44237859	    -44.98676336	    201.31766558	   -138.32038385	     50.55177042	    112.29214947	     33.77705859	     22.69174250	     90.00021046
      0.81500000	     -0.36646484	    -31.71693436	    -87.33634697	      0.00976721	      1.04915240	      1.54525205	     28.53393366	    -14.75488963	    -14.61735351	    -84.84639906	     12.68002403	     -0.78488990	      2.23063220	     26.12976636	    -14.62676721	     -8.08167270	    -94.46964504	     31.79406264	     -0.26102740	    -18.20497646	     10.67018067	     -1.48861653	     -0.18162054	     -0.97839612	      0.29477524	     -4.53286375	    -53.71292818	   -145.45794166	   -154.92612813	     62.46697696	    125.30059404	     36.47803296	     -0.28763932	     77.35597774	    -45.34465335	    200.91199159	   -139.14818563	     50.61995289	    113.58063047	     33.91376422	     22.38113125	     90.00021046
      0.81750000	     -0.42146137	    -32.11412637	    -87.36280779	      0.00936186	      1.04708871	      1.54071455	     29.79664069	    -14.76759653	    -14.32234869	    -86.06151965	     12.89332807	     -0.71514065	      2.15836166	     27.32996753	    -14.80270261	     -7.68464367	    -95.78430219	     31.97575797	     -0.32640311	    -18.24187742	      9.79758747	     -1.43342471	     -0.21251288	     -0.40079500	      0.32445712	     -4.60756938	    -53.59332553	   -145.63840256	   -155.26309896	     62.35700791	    125.40281515	     36.42641421	     -0.25087703	     77.33170818	    -45.16249961	    200.74741191	   -139.53920918	     50.40158692	    113.80545595	     33.84079780	     22.34183039	     90.00021046
      0.82000000	     -0.55933471	    -31.91343341	    -87.39529774	      0.00887355	      1.04447372	      1.53619738	     31.71799553	    -14.75591544	    -14.08929761	    -87.21871581	     13.11521834	     -0.20037376	      1.85212872	     29.31732752	    -15.05001946	     -7.23408570	    -97.11884075	     31.92620245	     -0.19783255	    -18.41229538	      9.62217843	     -1.38529384	     -0.15904538	      0.13609570	      0.38852353	     -4.68131456	    -53.64395554	   -145.53558290	   -155.58037306	     62.58463275	    125.74414465	     36.40636571	     -0.21819949	     77.28577263	    -45.17453716	    200.52232586	   -139.80581622	     50.45745283	    114.43734632	     33.79084089	     22.11119728	     90.00021046
      0.82250000	     -0.65225765	    -31.83458926	    -87.41243911	      0.00844770	      1.04200746	      1.53173694	     33.51993005	    -14.75857175	    -13.78277160	    -88.36185881	     13.33625411	      0.19326330	      1.46662457	     31.12538763	    -15.19226564	     -6.71787170	    -98.39126334	     31.96636857	     -0.15597747	    -18.58258902	      9.35779460	     -1.36127271	     -0.16175973	      0.39074949	      0.53538020	     -4.76070964	    -53.75643072	   -145.59401060	   -155.99324014	     62.60756816	    126.02032782	     36.40096278	     -0.24488643	     77.23806456	    -45.21069482	    200.30362928	   -140.19182155	     50.33980545	    115.06168939	     33.65666698	     21.84231585	     90.00021046
      0.82500000	     -0.72486602	    -31.71551777	    -87.43109028	      0.00802604	      1.03960445	      1.52730514	     35.34494671	    -14.74190853	    -13.44674423	    -89.40774384	     13.53501949	      0.55946126	      0.71943166	     32.99019192	    -15.25862254	     -6.17217886	    -99.63215666	     31.95839404	     -0.10385511	    -18.87318968	      9.18052037	     -1.35592020	     -0.14532052	      0.30361464	      0.78733359	     -4.82914168	    -53.92467293	   -145.65498419	   -156.39033031	     62.61809251	    126.37796749	     36.42534888	     -0.37064678	     77.16210059	    -45.31878482	    200.09960257	   -140.53633028	     50.26569322	    115.88664551	     33.41454992	     21.31266200	     90.00021046
      0.82750000	     -0.78117936	    -32.11997398	    -87.46061069	      0.00761075	      1.03761502	      1.52286695	     36.59663845	    -14.74324821	    -13.19187450	    -90.51440413	     13.73443143	      0.56198127	      0.61532653	     34.19831536	    -15.38544808	     -5.73137454	   -100.79452518	     32.15640905	     -0.16378371	    -18.89643331	      8.33898031	     -1.30613613	     -0.17390925	      0.81570203	      0.82541707	     -4.87591629	    -53.77472274	   -145.84599242	   -156.63156042	     62.40122367	    126.49916964	     36.35906120	     -0.35591935	     77.13745593	    -45.12011851	    199.95743528	   -140.72178544	     50.01850563	    116.04222159	     33.28831712	     21.26228473	     90.00021046
      0.83000000	     -0.89949772	    -32.09764966	    -87.47969745	      0.00715863	      1.03522708	      1.51845983	     38.30124161	    -14.75908905	    -13.03181564	    -91.53401788	     13.88183585	      0.72193267	      0.32599951	     35.98187151	    -15.56910052	     -5.24215172	   -101.96340673	     32.16256517	     -0.02036667	    -19.00277024	      7.97848879	     -1.25306271	     -0.17679133	      1.37509596	      0.87294117	     -4.86535158	    -53.73253686	   -145.83107818	   -156.84888759	     62.45941398	    126.77791764	     36.24471928	     -0.42625987	     77.08926576	    -44.97519277	    199.86452466	   -140.57878878	     49.99968512	    116.32294799	     32.99264783	     21.02691946	     90.00021046
      0.83250000	     -0.98098952	    -32.12746394	    -87.48727135	      0.00669984	      1.03296936	      1.51412348	     39.97041206	    -14.76200769	    -12.79450639	    -92.57284987	     14.01908478	      0.79983676	     -0.00751410	     37.66671986	    -15.65778007	     -4.71601598	   -103.05817358	     32.18508961	      0.12477591	    -19.12094627	      7.61684786	     -1.22777938	     -0.22688643	      1.66101496	      0.97872029	     -4.84875748	    -53.78639491	   -145.94298018	   -157.13923142	     62.37261089	    127.06391935	     36.10884025	     -0.54613821	     77.03623377	    -44.90447609	    199.77458293	   -140.55189592	     49.88773165	    116.58056291	     32.56701093	     20.77678470	     90.00021046
      0.83500000	     -1.01385575	    -32.50921495	    -87.50620681	      0.00631097	      1.03114842	      1.50978922	     41.23125018	    -14.75064631	    -12.49958059	    -93.58527594	     14.18930912	      0.76098996	     -0.10980877	     38.89368870	    -15.69532471	     -4.25166799	   -104.09968481	     32.31889063	      0.12788424	    -19.14914648	      6.86947601	     -1.19801076	     -0.26017948	      1.87726047	      1.08912521	     -4.87310586	    -53.70724897	   -146.14078759	   -157.31689898	     62.11389929	    127.21870878	     36.01500509	     -0.57299188	     77.00743561	    -44.79711119	    199.68880472	   -140.62913567	     49.69626580	    116.69679818	     32.34536385	     20.71656922	     90.00021046
      0.83750000	     -1.10235255	    -32.44646508	    -87.50841169	      0.00586954	      1.02886257	      1.50550425	     42.96355299	    -14.80754462	    -12.37098893	    -94.51567381	     14.30270682	      0.73846092	     -0.40183147	     40.70306531	    -15.84236905	     -3.80826837	   -105.12347527	     32.23585066	      0.35490454	    -19.26877794	      6.60343918	     -1.16461429	     -0.29378593	      2.35191519	      1.07873750	     -4.79769911	    -53.74759566	   -146.15153488	   -157.50509181	     62.16891154	    127.56158303	     35.76914720	     -0.75207004	     76.93952581	    -44.68779322	    199.69101313	   -140.34741564	     49.73783132	    116.91650191	     31.77706629	     20.46955759	     90.00021046
